<?xml version="1.0" standalone="no"?>
<!DOCTYPE svg PUBLIC "-//W3C//DTD SVG 20010904//EN"
 "http://www.w3.org/TR/2001/REC-SVG-20010904/DTD/svg10.dtd">
<svg version="1.0" xmlns="http://www.w3.org/2000/svg"
 width="560.000000pt" height="560.000000pt" viewBox="0 0 560.000000 560.000000"
 preserveAspectRatio="xMidYMid meet">
<metadata>
Created by potrace 1.11, written by Peter Selinger 2001-2013
</metadata>
<g transform="translate(0.000000,560.000000) scale(0.100000,-0.100000)"
fill="#000000" stroke="none">
<path d="M2532 5178 l-63 -41 -32 31 c-18 18 -40 32 -49 32 -19 0 -50 -36 -68
-80 -7 -16 -16 -31 -21 -31 -5 -1 -15 -2 -21 -3 -7 -2 -34 9 -60 23 -58 32
-77 24 -96 -40 -30 -98 -38 -103 -118 -68 -38 16 -54 18 -71 10 -24 -11 -27
-27 -24 -107 1 -22 -7 -61 -18 -87 l-20 -47 -53 0 c-80 -1 -112 -37 -72 -82
20 -21 7 -43 -32 -52 -47 -12 -74 -36 -74 -67 0 -15 5 -31 10 -34 19 -12 10
-22 -42 -50 -306 -166 -640 -487 -843 -810 -149 -237 -271 -544 -321 -809 -2
-12 -6 -32 -8 -46 -28 -143 -35 -249 -31 -465 5 -298 45 -524 140 -781 252
-685 812 -1227 1498 -1452 159 -52 353 -96 497 -111 126 -13 430 -11 550 4
710 90 1332 479 1722 1075 148 225 275 529 332 790 44 203 54 306 53 525 0
160 -17 352 -42 470 -79 381 -253 747 -501 1051 -187 230 -516 496 -755 609
-43 20 -61 63 -47 110 5 17 11 44 13 62 7 59 -47 79 -152 55 -23 -5 -44 -8
-47 -5 -2 2 0 18 4 34 9 31 6 67 -7 80 -15 15 -59 17 -93 5 -58 -19 -65 -16
-61 29 11 119 5 125 -97 105 -85 -16 -121 -5 -151 45 -28 48 -62 68 -94 56
-29 -11 -65 -5 -89 17 -13 11 -31 13 -73 8 -45 -5 -63 -2 -95 14 -29 15 -56
20 -102 18 -51 -1 -72 4 -113 25 -27 15 -61 27 -75 27 -14 0 -53 -19 -88 -42z"/>
</g>
</svg>
